HIERARCHY
ROOT pelvis
{
  OFFSET 0 100 0
  CHANNELS 6 Xposition Yposition Zposition Zrotation Xrotation Yrotation
  JOINT pelvis_right_femur
  {
    OFFSET -10.78128 -3.44521 -0.5502486
    CHANNELS 3 Zrotation Xrotation Yrotation
    JOINT right_femur_tibia
    {
      OFFSET -0.8047443 -44.0398 -0.1307829
      CHANNELS 3 Zrotation Xrotation Yrotation
      JOINT right_tibia_foot
      {
        OFFSET 3.006224 -47.83518 -5
        CHANNELS 3 Zrotation Xrotation Yrotation
        End Site
        {
          OFFSET 0 -5 15
        }
      }
    }
  }
  JOINT pelvis_left_femur
  {
    OFFSET 10.78128 -3.44521 -0.5502486
    CHANNELS 3 Zrotation Xrotation Yrotation
    JOINT left_femur_tibia
    {
      OFFSET 0.8047443 -44.0398 -0.1307829
      CHANNELS 3 Zrotation Xrotation Yrotation
      JOINT left_tibia_foot
      {
        OFFSET -4.370144 -48.10324 -4.275266
        CHANNELS 3 Zrotation Xrotation Yrotation
        End Site
        {
          OFFSET 0 -5 15
        }
      }
    }
  }
  JOINT pelvis_spine1
  {
    OFFSET 0 6.468898 -3.129235
    CHANNELS 3 Zrotation Xrotation Yrotation
    JOINT spine1
    {
      OFFSET 0 23.15396 4.99043
      CHANNELS 3 Zrotation Xrotation Yrotation
      JOINT spine2
      {
        OFFSET 0 20.79997 -5.064912
        CHANNELS 3 Zrotation Xrotation Yrotation
        JOINT neck
        {
          OFFSET 0 14.38658 9.616178
          CHANNELS 3 Zrotation Xrotation Yrotation
          End Site
          {
            OFFSET 0 20 0
          }
        }
      }
      JOINT right_manubrium
      {
        OFFSET -5.722621 16.35077 3.967754
        CHANNELS 3 Zrotation Xrotation Yrotation
        JOINT right_clavicle
        {
          OFFSET -13.16364 1.694482 -4.693211
          CHANNELS 3 Zrotation Xrotation Yrotation
          JOINT right_humerus
          {
            OFFSET -28.5034 -0.3100689 -2.792744
            CHANNELS 3 Zrotation Xrotation Yrotation
            JOINT right_radius
            {
              OFFSET -25.15693 0.02248979 -1.271978
              CHANNELS 3 Zrotation Xrotation Yrotation
              End Site
              {
                OFFSET -15 0 0
              }
            }
          }
        }
      }
      JOINT left_manubrium
      {
        OFFSET 5.722621 16.35077 3.967754
        CHANNELS 3 Zrotation Xrotation Yrotation
        JOINT left_clavicle
        {
          OFFSET 13.16364 1.694482 -4.693211
          CHANNELS 3 Zrotation Xrotation Yrotation
          JOINT left_humerus
          {
            OFFSET 29.39168 -1.063119 -2.237045
            CHANNELS 3 Zrotation Xrotation Yrotation
            JOINT left_radius
            {
              OFFSET 24.59957 -0.9528479 0.9047498
              CHANNELS 3 Zrotation Xrotation Yrotation
              End Site
              {
                OFFSET 15 -0 -0
              }
            }
          }
        }
      }
    }
  }
}
MOTION
Frames: 7
Frame Time: 0.0416666666667
562.3412 103.2383 3086.128 3.638845 -6.659785 8.846186 -1.159917 15.25831 4.947749 -0 44.56554 -0 1.355291 -0.1246765 -2.840891 -4.811588 -15.6319 -7.85675 -0 21.31719 -0 -4.682297 -10.39903 18.62473 -3.295645 -0.9408409 7.995378 -1.537865 10.28606 -3.274561 2.070491 21.58828 5.319845 2.113972 -18.97838 7.181621 0.8681581 -20.9307 10.26939 84.38644 23.5762 -8.074996 -0 0 21.9488 -23.69238 9.602155 13.6905 3.520841 -15.06998 -3.007065 -92.73575 23.22558 25.47527 0 0 -8.002696 -2.039795 4.212372 16.86443
564.4477 104.4236 3092.403 3.691881 -7.241228 9.934183 -0.966611 9.964438 4.371864 -0 50.93748 -0 0.7593582 2.153528 -3.911705 -5.508186 -10.3698 -8.310124 -0 20.83186 -0 -4.124792 -11.79537 18.236 -3.359122 -0.7185141 6.960559 -1.275888 10.70251 -4.037778 1.867902 21.83332 5.586835 2.019937 -19.12328 7.389548 1.23399 -20.24397 10.31506 85.83488 24.08259 -9.937277 -0 0 19.89665 -23.14393 9.860167 13.09443 3.396242 -15.86008 -3.496092 -91.32606 23.3432 23.32972 0 0 -9.04521 -1.570713 4.352661 16.28958
566.427 105.6292 3098.26 3.465591 -7.695183 11.13329 -0.4812586 3.557372 3.836185 -0 53.56268 -0 0.1091042 2.904766 -4.96562 -5.614235 -4.995467 -8.521249 -0 19.1929 -0 -3.84095 -13.34534 17.62974 -3.099664 -0.3031743 5.77774 -0.8648924 10.93174 -4.97222 1.664743 22.10251 5.84867 1.890609 -19.06125 7.599896 1.295068 -19.55204 10.25717 87.22673 24.41315 -11.89071 -0 0 18.06466 -22.57497 10.07669 12.57295 3.522659 -16.79112 -3.941877 -89.69852 23.37906 20.63737 0 0 -10.79227 -1.03432 4.603035 15.57374
568.2822 106.5262 3103.78 3.12239 -7.882661 12.30513 -0.008886923 -3.174345 3.390181 -0 51.8928 -0 -0.6335505 2.767274 -5.850161 -5.370717 0.1639228 -8.629949 -0 16.81088 -0 -3.80013 -14.97386 16.85838 -2.730773 0.1427542 4.625697 -0.3760367 10.97678 -5.962507 1.515009 22.29999 6.096733 1.804397 -18.97396 7.818814 1.039914 -18.87455 10.07113 88.52728 24.51903 -13.91296 -0 0 16.48141 -22.02944 10.25857 12.13405 3.898909 -17.84929 -4.333171 -88.01555 23.43937 17.64039 0 0 -13.10807 -0.4285236 4.861425 14.75939
570.0112 106.8826 3109.074 2.783113 -7.739878 13.34069 0.2733326 -9.638806 2.900226 -0 46.31861 -0 -1.488257 2.195305 -6.481343 -5.031914 4.945147 -8.68847 -0 14.31371 -0 -3.868154 -16.61072 16.00587 -2.4173 0.5054855 3.646207 0.1533089 10.87692 -6.907123 1.427878 22.37734 6.317743 1.802228 -19.03114 8.016064 0.6036146 -18.22516 9.835541 89.7169 24.45847 -15.99752 -0 0 14.97579 -21.51573 10.41261 11.73506 4.430214 -19.03217 -4.715615 -86.3508 23.54732 14.51482 0 0 -15.89172 0.2223847 5.110895 13.87708
571.6167 106.6076 3114.272 2.520035 -7.214545 14.1574 0.2891943 -15.47911 2.196531 -0 37.73176 -0 -2.293241 1.297012 -6.891018 -4.817056 9.178877 -8.64627 -0 12.41441 -0 -3.916753 -18.18874 15.09773 -2.268057 0.7218264 2.95801 0.707528 10.64234 -7.719836 1.402313 22.31743 6.459939 1.881346 -19.23327 8.11926 0.2332353 -17.55442 9.676103 90.68706 24.38659 -18.09641 -0 0 13.3465 -21.03914 10.5725 11.32441 5.0112 -20.29158 -5.093993 -84.70199 23.57458 11.36755 0 0 -19.06282 0.8880786 5.445161 12.90671
573.1243 105.7444 3119.537 2.400853 -6.300792 14.72757 0.02484223 -20.32128 1.238217 -0 27.41793 -0 -2.777886 0.1259153 -7.210173 -4.885077 12.64779 -8.401925 -0 11.66603 -0 -3.915251 -19.64509 14.14757 -2.350146 0.7455211 2.652862 1.242771 10.25714 -8.317969 1.459694 22.12826 6.432699 1.98707 -19.43996 8.070876 0.1049856 -16.79242 9.647789 91.33843 24.4476 -20.09451 -0 0 11.54234 -20.58766 10.76507 10.83383 5.585231 -21.50556 -5.367648 -83.07641 23.3117 8.324987 0 0 -22.43707 1.557986 5.931136 11.7965
